<svg width="29" height="35" viewBox="0 0 29 35" fill="none" xmlns="http://www.w3.org/2000/svg">
<path d="M29 14.5026C29.0005 11.7541 28.2198 9.06198 26.7489 6.74014C25.2779 4.4183 23.1774 2.56235 20.692 1.38861C18.2067 0.214875 15.4389 -0.228297 12.7114 0.110749C9.9838 0.449795 7.40877 1.55709 5.28642 3.30358C3.16408 5.05007 1.58183 7.3638 0.724108 9.97511C-0.133614 12.5864 -0.231482 15.3877 0.441914 18.0525C1.11531 20.7173 2.53223 23.1358 4.52752 25.0262C6.52281 26.9165 9.01428 28.2008 11.7115 28.7294V31.2334H8.92308C8.77517 31.2334 8.63332 31.2922 8.52873 31.3967C8.42414 31.5013 8.36539 31.6432 8.36539 31.7911V33.4642H7.80769C7.65978 33.4642 7.51793 33.5229 7.41334 33.6275C7.30876 33.7321 7.25 33.874 7.25 34.0219C7.25 34.1698 7.30876 34.3116 7.41334 34.4162C7.51793 34.5208 7.65978 34.5796 7.80769 34.5796H21.1923C21.3402 34.5796 21.4821 34.5208 21.5867 34.4162C21.6912 34.3116 21.75 34.1698 21.75 34.0219C21.75 33.874 21.6912 33.7321 21.5867 33.6275C21.4821 33.5229 21.3402 33.4642 21.1923 33.4642H20.6346V31.7911C20.6346 31.6432 20.5759 31.5013 20.4713 31.3967C20.3667 31.2922 20.2248 31.2334 20.0769 31.2334H17.2885V28.7294C20.587 28.083 23.5585 26.3107 25.6948 23.7156C27.831 21.1205 28.9994 17.8639 29 14.5026ZM1.11539 14.5026C1.11539 11.8554 1.90038 9.26763 3.3711 7.06654C4.84182 4.86545 6.93221 3.14991 9.37793 2.13686C11.8236 1.12381 14.5148 0.858749 17.1112 1.3752C19.7076 1.89165 22.0925 3.16641 23.9644 5.03828C25.8362 6.91015 27.111 9.29506 27.6274 11.8914C28.1439 14.4878 27.8788 17.179 26.8658 19.6247C25.8527 22.0704 24.1372 24.1608 21.9361 25.6315C19.735 27.1023 17.1472 27.8872 14.5 27.8872C10.9502 27.8872 7.54575 26.4771 5.03565 23.967C2.52555 21.4569 1.11539 18.0525 1.11539 14.5026ZM19.5192 33.4642H9.48077V32.3488H19.5192V33.4642ZM16.1731 31.2334H12.8269V28.9023C13.9383 29.0361 15.0617 29.0361 16.1731 28.9023V31.2334ZM19.6921 23.3197C19.7851 23.3901 19.899 23.4274 20.0156 23.4257C20.1337 23.4261 20.2489 23.389 20.3446 23.3197C20.4398 23.2502 20.5105 23.1523 20.5466 23.0401C20.5826 22.9279 20.5822 22.8071 20.5454 22.6951L18.5656 16.6944L23.7465 12.9801C23.8418 12.9112 23.9128 12.8139 23.9494 12.7023C23.9861 12.5906 23.9865 12.4701 23.9506 12.3582C23.9147 12.2463 23.8444 12.1485 23.7497 12.0789C23.6549 12.0093 23.5406 11.9715 23.4231 11.9707H17.0096L15.0577 5.96436C15.021 5.85279 14.9501 5.75564 14.8549 5.68676C14.7598 5.61789 14.6453 5.58081 14.5279 5.58081C14.4104 5.58081 14.296 5.61789 14.2008 5.68676C14.1057 5.75564 14.0348 5.85279 13.9981 5.96436L11.9904 11.9707H5.57692C5.45938 11.9715 5.34507 12.0093 5.25034 12.0789C5.1556 12.1485 5.08527 12.2463 5.0494 12.3582C5.01353 12.4701 5.01395 12.5906 5.0506 12.7023C5.08724 12.8139 5.15824 12.9112 5.25346 12.9801L10.4344 16.6944L8.45462 22.6951C8.41917 22.8065 8.41959 22.9262 8.45584 23.0373C8.49209 23.1484 8.56232 23.2453 8.65661 23.3143C8.75091 23.3833 8.86451 23.421 8.98137 23.422C9.09823 23.423 9.21245 23.3872 9.30789 23.3197L14.5 19.6055L19.6921 23.3197ZM10.0385 21.418L11.6112 16.6497C11.6474 16.5372 11.647 16.416 11.6099 16.3038C11.5728 16.1915 11.501 16.0939 11.4048 16.0251L7.30019 13.0861H12.3808C12.5031 13.0921 12.624 13.0576 12.7248 12.9881C12.8255 12.9185 12.9006 12.8178 12.9385 12.7013L14.5 7.91629L16.0783 12.7013C16.1161 12.8178 16.1912 12.9185 16.292 12.9881C16.3928 13.0576 16.5137 13.0921 16.636 13.0861H21.7165L17.6119 16.0251C17.5158 16.0939 17.4439 16.1915 17.4069 16.3038C17.3698 16.416 17.3693 16.5372 17.4056 16.6497L18.9615 21.418L14.8346 18.4622C14.7402 18.395 14.6271 18.3589 14.5112 18.3589C14.3952 18.3589 14.2821 18.395 14.1877 18.4622L10.0385 21.418Z" fill="#FAFAFA" fill-opacity="0.84"/>
</svg>
