<svg width="173" height="35" viewBox="0 0 173 35" fill="none" xmlns="http://www.w3.org/2000/svg">
<rect x="138" width="35" height="35" fill="#190929"/>
<path d="M156.42 25.0795V17.7449H158.881L159.25 14.8868H156.42V13.0618C156.42 12.2337 156.649 11.6701 157.836 11.6701L159.35 11.6693V9.11268C158.617 9.03515 157.881 8.99758 157.145 9.00012C154.962 9.00012 153.468 10.3323 153.468 12.7788V14.8868H151V17.7449H153.468V25.0795H156.42Z" fill="white"/>
<rect width="35" height="35" fill="#190929"/>
<path d="M17.4638 9C15.4541 9.00008 13.5099 9.71529 11.9792 11.0176C10.4486 12.32 9.43125 14.1245 9.10932 16.1083C8.78738 18.0921 9.18184 20.1257 10.2221 21.8453C11.2624 23.5649 12.8806 24.8582 14.7872 25.4938C15.2103 25.5679 15.369 25.314 15.369 25.0918C15.369 24.8908 15.3585 24.2242 15.3585 23.5154C13.2319 23.9068 12.6818 22.997 12.5125 22.5209C12.3247 22.0579 12.0269 21.6476 11.645 21.3254C11.3487 21.1667 10.9255 20.7752 11.6344 20.7647C11.905 20.7941 12.1646 20.8882 12.3912 21.0392C12.6177 21.1903 12.8045 21.3937 12.9357 21.6322C13.0514 21.8401 13.2071 22.0232 13.3937 22.1709C13.5804 22.3186 13.7943 22.428 14.0233 22.4929C14.2523 22.5578 14.4918 22.5768 14.7282 22.5489C14.9646 22.521 15.1931 22.4468 15.4007 22.3305C15.4374 21.9002 15.6291 21.4979 15.9403 21.1985C14.0571 20.9869 12.0893 20.2568 12.0893 17.0195C12.0774 16.1783 12.3878 15.3644 12.9568 14.7448C12.6981 14.0137 12.7284 13.2114 13.0415 12.5019C13.0415 12.5019 13.7503 12.2797 15.369 13.3695C16.7539 12.9886 18.216 12.9886 19.6009 13.3695C21.2196 12.2692 21.9285 12.5019 21.9285 12.5019C22.2416 13.2114 22.2719 14.0137 22.0131 14.7448C22.5838 15.3634 22.8945 16.1779 22.8806 17.0195C22.8806 20.2674 20.9022 20.9869 19.019 21.1985C19.221 21.4032 19.3766 21.649 19.4752 21.9192C19.5737 22.1893 19.613 22.4776 19.5903 22.7643C19.5903 23.8963 19.5798 24.8061 19.5798 25.0918C19.5798 25.314 19.7384 25.5785 20.1616 25.4938C22.0649 24.853 23.6784 23.5567 24.7142 21.8362C25.7501 20.1158 26.1408 18.0832 25.8166 16.1013C25.4925 14.1194 24.4745 12.3173 22.9445 11.0165C21.4145 9.71574 19.472 9.00105 17.4638 9Z" fill="white"/>
<rect x="92" width="35" height="35" fill="#190929"/>
<path d="M112.738 12.422C112.572 12.422 112.409 12.4713 112.271 12.5636C112.133 12.6559 112.026 12.7871 111.962 12.9405C111.898 13.094 111.882 13.2629 111.914 13.4259C111.947 13.5888 112.027 13.7385 112.144 13.856C112.262 13.9734 112.411 14.0534 112.574 14.0859C112.737 14.1183 112.906 14.1016 113.059 14.0381C113.213 13.9745 113.344 13.8668 113.436 13.7287C113.529 13.5905 113.578 13.4281 113.578 13.262C113.578 13.0392 113.49 12.8256 113.332 12.668C113.174 12.5105 112.961 12.422 112.738 12.422ZM115.958 14.116C115.944 13.5352 115.836 12.9606 115.636 12.415C115.458 11.9482 115.181 11.5255 114.824 11.176C114.477 10.8172 114.054 10.5419 113.585 10.371C113.041 10.1653 112.466 10.054 111.884 10.042C111.142 10 110.904 10 109 10C107.096 10 106.858 10 106.116 10.042C105.534 10.054 104.959 10.1653 104.415 10.371C103.947 10.5437 103.524 10.8187 103.176 11.176C102.817 11.5226 102.542 11.9463 102.371 12.415C102.165 12.9591 102.054 13.5344 102.042 14.116C102 14.858 102 15.096 102 17C102 18.904 102 19.142 102.042 19.884C102.054 20.4656 102.165 21.0409 102.371 21.585C102.542 22.0537 102.817 22.4774 103.176 22.824C103.524 23.1813 103.947 23.4563 104.415 23.629C104.959 23.8347 105.534 23.946 106.116 23.958C106.858 24 107.096 24 109 24C110.904 24 111.142 24 111.884 23.958C112.466 23.946 113.041 23.8347 113.585 23.629C114.054 23.4581 114.477 23.1828 114.824 22.824C115.183 22.4758 115.46 22.0527 115.636 21.585C115.836 21.0394 115.944 20.4648 115.958 19.884C115.958 19.142 116 18.904 116 17C116 15.096 116 14.858 115.958 14.116ZM114.698 19.8C114.693 20.2443 114.612 20.6846 114.46 21.102C114.348 21.4066 114.169 21.6819 113.935 21.907C113.708 22.1384 113.433 22.3175 113.13 22.432C112.713 22.5844 112.272 22.6649 111.828 22.67C111.128 22.705 110.869 22.712 109.028 22.712C107.187 22.712 106.928 22.712 106.228 22.67C105.767 22.6786 105.307 22.6076 104.87 22.46C104.58 22.3397 104.318 22.161 104.1 21.935C103.868 21.7101 103.69 21.4346 103.582 21.13C103.411 20.7066 103.316 20.2564 103.302 19.8C103.302 19.1 103.26 18.841 103.26 17C103.26 15.159 103.26 14.9 103.302 14.2C103.305 13.7457 103.388 13.2956 103.547 12.87C103.67 12.5745 103.859 12.3112 104.1 12.1C104.313 11.8593 104.576 11.6682 104.87 11.54C105.297 11.386 105.746 11.3056 106.2 11.302C106.9 11.302 107.159 11.26 109 11.26C110.841 11.26 111.1 11.26 111.8 11.302C112.244 11.3071 112.685 11.3876 113.102 11.54C113.42 11.6581 113.706 11.85 113.935 12.1C114.164 12.315 114.344 12.5779 114.46 12.87C114.616 13.2963 114.696 13.7462 114.698 14.2C114.733 14.9 114.74 15.159 114.74 17C114.74 18.841 114.733 19.1 114.698 19.8ZM109 13.409C108.29 13.4104 107.596 13.6222 107.007 14.0176C106.417 14.413 105.958 14.9743 105.687 15.6306C105.417 16.2869 105.347 17.0087 105.486 17.7049C105.625 18.401 105.968 19.0402 106.47 19.5417C106.973 20.0432 107.613 20.3845 108.309 20.5225C109.005 20.6605 109.727 20.589 110.383 20.317C111.039 20.045 111.599 19.5847 111.993 18.9943C112.388 18.4039 112.598 17.7099 112.598 17C112.599 16.5276 112.506 16.0596 112.326 15.6231C112.145 15.1865 111.88 14.79 111.546 14.4562C111.211 14.1225 110.814 13.8582 110.377 13.6785C109.941 13.4987 109.472 13.4072 109 13.409ZM109 19.331C108.539 19.331 108.088 19.1943 107.705 18.9382C107.322 18.682 107.023 18.318 106.846 17.892C106.67 17.4661 106.624 16.9974 106.714 16.5452C106.804 16.0931 107.026 15.6777 107.352 15.3517C107.678 15.0257 108.093 14.8037 108.545 14.7138C108.997 14.6238 109.466 14.67 109.892 14.8464C110.318 15.0229 110.682 15.3216 110.938 15.705C111.194 16.0883 111.331 16.539 111.331 17C111.331 17.3061 111.271 17.6092 111.154 17.892C111.036 18.1748 110.865 18.4318 110.648 18.6483C110.432 18.8647 110.175 19.0364 109.892 19.1536C109.609 19.2707 109.306 19.331 109 19.331Z" fill="white"/>
<rect x="46" width="35" height="35" fill="#190929"/>
<path d="M54 10.9048C54 10.3527 54.1932 9.89719 54.5797 9.53832C54.9662 9.17943 55.4687 9 56.087 9C56.6944 9 57.1857 9.17667 57.5612 9.53004C57.9477 9.89444 58.1409 10.3693 58.1409 10.9545C58.1409 11.4846 57.9532 11.9262 57.5778 12.2796C57.1913 12.644 56.6833 12.8262 56.0539 12.8262H56.0373C55.43 12.8262 54.9386 12.644 54.5632 12.2796C54.1877 11.9152 54 11.4569 54 10.9048ZM54.2153 25.3981V14.3335H57.8925V25.3981H54.2153ZM59.9298 25.3981H63.6069V19.2198C63.6069 18.8333 63.6511 18.5352 63.7395 18.3254C63.894 17.9499 64.1287 17.6324 64.4434 17.373C64.7581 17.1134 65.1529 16.9837 65.6277 16.9837C66.8645 16.9837 67.4829 17.8174 67.4829 19.4848V25.3981H71.16V19.0542C71.16 17.4199 70.7735 16.1804 70.0005 15.3356C69.2276 14.4909 68.2061 14.0685 66.9363 14.0685C65.5118 14.0685 64.402 14.6814 63.6069 15.9071V15.9402H63.5904L63.6069 15.9071V14.3335H59.9298C59.9519 14.6869 59.9629 15.7856 59.9629 17.6297C59.9629 19.4738 59.9519 22.0632 59.9298 25.3981Z" fill="white"/>
</svg>
