<svg width="173" height="35" viewBox="0 0 173 35" fill="none" xmlns="http://www.w3.org/2000/svg">
<rect x="138" width="35" height="35" fill="#200E32"/>
<path d="M156.77 24.1538V17.6976H158.937L159.262 15.1818H156.771V13.5753C156.771 12.8464 156.973 12.3503 158.017 12.3503L159.35 12.3496V10.0992C158.705 10.0309 158.057 9.99787 157.409 10.0001C155.487 10.0001 154.173 11.1727 154.173 13.3262V15.1818H152V17.6976H154.173V24.1538H156.77Z" fill="white"/>
<rect width="35" height="35" fill="#200E32"/>
<path d="M18.4638 9C16.4541 9.00008 14.5099 9.71529 12.9792 11.0176C11.4486 12.32 10.4313 14.1245 10.1093 16.1083C9.78738 18.0921 10.1818 20.1257 11.2221 21.8453C12.2624 23.5649 13.8806 24.8582 15.7872 25.4938C16.2103 25.5679 16.369 25.314 16.369 25.0918C16.369 24.8908 16.3585 24.2242 16.3585 23.5154C14.2319 23.9068 13.6818 22.997 13.5125 22.5209C13.3247 22.0579 13.0269 21.6476 12.645 21.3254C12.3487 21.1667 11.9255 20.7752 12.6344 20.7647C12.905 20.7941 13.1646 20.8882 13.3912 21.0392C13.6177 21.1903 13.8045 21.3937 13.9357 21.6322C14.0514 21.8401 14.2071 22.0232 14.3937 22.1709C14.5804 22.3186 14.7943 22.428 15.0233 22.4929C15.2523 22.5578 15.4918 22.5768 15.7282 22.5489C15.9646 22.521 16.1931 22.4468 16.4007 22.3305C16.4374 21.9002 16.6291 21.4979 16.9403 21.1985C15.0571 20.9869 13.0893 20.2568 13.0893 17.0195C13.0774 16.1783 13.3878 15.3644 13.9568 14.7448C13.6981 14.0137 13.7284 13.2114 14.0415 12.5019C14.0415 12.5019 14.7503 12.2797 16.369 13.3695C17.7539 12.9886 19.216 12.9886 20.6009 13.3695C22.2196 12.2692 22.9285 12.5019 22.9285 12.5019C23.2416 13.2114 23.2719 14.0137 23.0131 14.7448C23.5838 15.3634 23.8945 16.1779 23.8806 17.0195C23.8806 20.2674 21.9022 20.9869 20.019 21.1985C20.221 21.4032 20.3766 21.649 20.4752 21.9192C20.5737 22.1893 20.613 22.4776 20.5903 22.7643C20.5903 23.8963 20.5798 24.8061 20.5798 25.0918C20.5798 25.314 20.7384 25.5785 21.1616 25.4938C23.0649 24.853 24.6784 23.5567 25.7142 21.8362C26.7501 20.1158 27.1408 18.0832 26.8166 16.1013C26.4925 14.1194 25.4745 12.3173 23.9445 11.0165C22.4145 9.71574 20.472 9.00105 18.4638 9Z" fill="white"/>
<rect x="92" width="35" height="35" fill="#200E32"/>
<path d="M113.738 13.422C113.572 13.422 113.409 13.4713 113.271 13.5636C113.133 13.6559 113.026 13.7871 112.962 13.9405C112.898 14.094 112.882 14.2629 112.914 14.4259C112.947 14.5888 113.027 14.7385 113.144 14.856C113.262 14.9734 113.411 15.0534 113.574 15.0859C113.737 15.1183 113.906 15.1016 114.059 15.0381C114.213 14.9745 114.344 14.8668 114.436 14.7287C114.529 14.5905 114.578 14.4281 114.578 14.262C114.578 14.0392 114.49 13.8256 114.332 13.668C114.174 13.5105 113.961 13.422 113.738 13.422ZM116.958 15.116C116.944 14.5352 116.836 13.9606 116.636 13.415C116.458 12.9482 116.181 12.5255 115.824 12.176C115.477 11.8172 115.054 11.5419 114.585 11.371C114.041 11.1653 113.466 11.054 112.884 11.042C112.142 11 111.904 11 110 11C108.096 11 107.858 11 107.116 11.042C106.534 11.054 105.959 11.1653 105.415 11.371C104.947 11.5437 104.524 11.8187 104.176 12.176C103.817 12.5226 103.542 12.9463 103.371 13.415C103.165 13.9591 103.054 14.5344 103.042 15.116C103 15.858 103 16.096 103 18C103 19.904 103 20.142 103.042 20.884C103.054 21.4656 103.165 22.0409 103.371 22.585C103.542 23.0537 103.817 23.4774 104.176 23.824C104.524 24.1813 104.947 24.4563 105.415 24.629C105.959 24.8347 106.534 24.946 107.116 24.958C107.858 25 108.096 25 110 25C111.904 25 112.142 25 112.884 24.958C113.466 24.946 114.041 24.8347 114.585 24.629C115.054 24.4581 115.477 24.1828 115.824 23.824C116.183 23.4758 116.46 23.0527 116.636 22.585C116.836 22.0394 116.944 21.4648 116.958 20.884C116.958 20.142 117 19.904 117 18C117 16.096 117 15.858 116.958 15.116ZM115.698 20.8C115.693 21.2443 115.612 21.6846 115.46 22.102C115.348 22.4066 115.169 22.6819 114.935 22.907C114.708 23.1384 114.433 23.3175 114.13 23.432C113.713 23.5844 113.272 23.6649 112.828 23.67C112.128 23.705 111.869 23.712 110.028 23.712C108.187 23.712 107.928 23.712 107.228 23.67C106.767 23.6786 106.307 23.6076 105.87 23.46C105.58 23.3397 105.318 23.161 105.1 22.935C104.868 22.7101 104.69 22.4346 104.582 22.13C104.411 21.7066 104.316 21.2564 104.302 20.8C104.302 20.1 104.26 19.841 104.26 18C104.26 16.159 104.26 15.9 104.302 15.2C104.305 14.7457 104.388 14.2956 104.547 13.87C104.67 13.5745 104.859 13.3112 105.1 13.1C105.313 12.8593 105.576 12.6682 105.87 12.54C106.297 12.386 106.746 12.3056 107.2 12.302C107.9 12.302 108.159 12.26 110 12.26C111.841 12.26 112.1 12.26 112.8 12.302C113.244 12.3071 113.685 12.3876 114.102 12.54C114.42 12.6581 114.706 12.85 114.935 13.1C115.164 13.315 115.344 13.5779 115.46 13.87C115.616 14.2963 115.696 14.7462 115.698 15.2C115.733 15.9 115.74 16.159 115.74 18C115.74 19.841 115.733 20.1 115.698 20.8ZM110 14.409C109.29 14.4104 108.596 14.6222 108.007 15.0176C107.417 15.413 106.958 15.9743 106.687 16.6306C106.417 17.2869 106.347 18.0087 106.486 18.7049C106.625 19.401 106.968 20.0402 107.47 20.5417C107.973 21.0432 108.613 21.3845 109.309 21.5225C110.005 21.6605 110.727 21.589 111.383 21.317C112.039 21.045 112.599 20.5847 112.993 19.9943C113.388 19.4039 113.598 18.7099 113.598 18C113.599 17.5276 113.506 17.0596 113.326 16.6231C113.145 16.1865 112.88 15.79 112.546 15.4562C112.211 15.1225 111.814 14.8582 111.377 14.6785C110.941 14.4987 110.472 14.4072 110 14.409ZM110 20.331C109.539 20.331 109.088 20.1943 108.705 19.9382C108.322 19.682 108.023 19.318 107.846 18.892C107.67 18.4661 107.624 17.9974 107.714 17.5452C107.804 17.0931 108.026 16.6777 108.352 16.3517C108.678 16.0257 109.093 15.8037 109.545 15.7138C109.997 15.6238 110.466 15.67 110.892 15.8464C111.318 16.0229 111.682 16.3216 111.938 16.705C112.194 17.0883 112.331 17.539 112.331 18C112.331 18.3061 112.271 18.6092 112.154 18.892C112.036 19.1748 111.865 19.4318 111.648 19.6483C111.432 19.8647 111.175 20.0364 110.892 20.1536C110.609 20.2707 110.306 20.331 110 20.331Z" fill="white"/>
<rect x="46" width="35" height="35" fill="#200E32"/>
<path d="M56 10.7889C56 10.2704 56.1815 9.84258 56.5444 9.50556C56.9074 9.16851 57.3793 9 57.96 9C58.5304 9 58.9918 9.16592 59.3444 9.49778C59.7074 9.84 59.8889 10.2859 59.8889 10.8356C59.8889 11.3333 59.7126 11.7481 59.36 12.08C58.997 12.4222 58.52 12.5933 57.9289 12.5933H57.9133C57.343 12.5933 56.8815 12.4222 56.5289 12.08C56.1763 11.7378 56 11.3074 56 10.7889ZM56.2022 24.4V14.0089H59.6556V24.4H56.2022ZM61.5689 24.4H65.0222V18.5978C65.0222 18.2348 65.0637 17.9548 65.1467 17.7578C65.2918 17.4052 65.5122 17.107 65.8078 16.8633C66.1033 16.6196 66.4741 16.4978 66.92 16.4978C68.0815 16.4978 68.6622 17.2807 68.6622 18.8467V24.4H72.1156V18.4422C72.1156 16.9074 71.7526 15.7433 71.0267 14.95C70.3007 14.1567 69.3415 13.76 68.1489 13.76C66.8111 13.76 65.7689 14.3356 65.0222 15.4867V15.5178H65.0067L65.0222 15.4867V14.0089H61.5689C61.5896 14.3407 61.6 15.3726 61.6 17.1044C61.6 18.8363 61.5896 21.2681 61.5689 24.4Z" fill="white"/>
</svg>
