<svg width="14" height="20" viewBox="0 0 14 20" fill="none" xmlns="http://www.w3.org/2000/svg">
<path d="M7 19.7083L6.625 19.25C6.375 18.9167 0 11.4583 0 7C0 3.125 3.16667 0 7 0C10.8333 0 14 3.16667 14 7C14 11.4583 7.625 18.9583 7.375 19.25L7 19.7083ZM7 0.958333C3.66667 0.958333 1 3.66667 1 6.95833C1 10.4583 5.625 16.4167 7 18.125C8.375 16.4167 13 10.5 13 6.95833C13 3.66667 10.3333 0.958333 7 0.958333Z" fill="#454DFD"/>
<path d="M7.00004 9.66659C5.54171 9.66659 4.33337 8.45825 4.33337 6.99992C4.33337 5.54159 5.54171 4.33325 7.00004 4.33325C8.45837 4.33325 9.66671 5.54159 9.66671 6.99992C9.66671 8.45825 8.45837 9.66659 7.00004 9.66659ZM7.00004 5.33325C6.08337 5.33325 5.33337 6.08325 5.33337 6.99992C5.33337 7.91659 6.08337 8.66659 7.00004 8.66659C7.91671 8.66659 8.66671 7.91659 8.66671 6.99992C8.66671 6.08325 7.91671 5.33325 7.00004 5.33325Z" fill="#454DFD"/>
</svg>
