<svg width="19" height="16" viewBox="0 0 19 16" fill="none" xmlns="http://www.w3.org/2000/svg">
<path d="M1.27472 0V0.0045017C0.574714 0.0045017 0 0.579965 0 1.27998V11.1837C0 11.8837 0.575464 12.4591 1.27547 12.4591H15.1084L18.1462 14.9268C18.2012 14.9712 18.2676 14.9991 18.3378 15.0074C18.408 15.0157 18.4791 15.004 18.5429 14.9737C18.6067 14.9433 18.6607 14.8956 18.6986 14.8359C18.7364 14.7762 18.7567 14.7071 18.757 14.6364V10.8003C18.757 10.7973 18.757 10.7943 18.757 10.7913V1.27472C18.757 0.575464 18.1823 0 17.4815 0H1.27472ZM1.36101 0.754781H17.396L9.37848 5.7929L1.36176 0.754781H1.36101ZM0.754781 1.26047L9.17891 6.55369C9.2387 6.59125 9.30787 6.61118 9.37848 6.61118C9.44909 6.61118 9.51827 6.59125 9.57806 6.55369L18.0037 1.26047C18.0037 1.26722 18.0067 1.27247 18.0067 1.27923V10.4821C18.0067 10.4846 18.0067 10.4871 18.0067 10.4896V13.8494L15.4775 11.7936C15.4108 11.7398 15.3277 11.7104 15.2419 11.7104H1.27472C1.20542 11.7117 1.13657 11.699 1.07229 11.6731C1.00801 11.6471 0.949636 11.6085 0.900659 11.5594C0.851683 11.5104 0.813118 11.452 0.787277 11.3876C0.761436 11.3233 0.748851 11.2545 0.750279 11.1852V1.28148C0.750279 1.27397 0.754781 1.26797 0.754781 1.26047Z" fill="#454DFD"/>
</svg>
