<svg width="17" height="17" viewBox="0 0 17 17" fill="none" xmlns="http://www.w3.org/2000/svg">
<path d="M14.2961 15.9703C14.1803 15.9704 14.0675 15.933 13.9747 15.8637C13.8819 15.7944 13.814 15.6969 13.7812 15.5857C13.7485 15.4746 13.7526 15.3559 13.7929 15.2473C13.8333 15.1387 13.9078 15.0461 14.0051 14.9833C14.5104 14.6505 14.94 14.2152 15.2663 13.7058C15.5748 13.2371 15.6806 12.8579 15.5816 12.5776C15.3803 12.0078 14.2968 11.5964 13.3757 11.3015C12.9689 11.1698 12.5337 11.1532 12.1181 11.2538C11.7026 11.3543 11.323 11.5679 11.0214 11.8709L10.6725 12.2201C10.61 12.2827 10.533 12.3289 10.4484 12.3545C10.2089 12.426 8.89448 12.6634 6.46086 10.2294C6.41098 10.1796 6.3714 10.1205 6.34437 10.0554C6.31734 9.99035 6.30339 9.92059 6.30333 9.85012C6.30326 9.77965 6.31708 9.70985 6.34398 9.64472C6.37089 9.57959 6.41036 9.5204 6.46014 9.47052C6.50993 9.42064 6.56905 9.38106 6.63413 9.35403C6.69921 9.327 6.76897 9.31305 6.83944 9.31299C6.90991 9.31292 6.97971 9.32674 7.04484 9.35364C7.10997 9.38055 7.16916 9.42002 7.21904 9.4698C8.81548 11.0666 9.74989 11.2911 10.0573 11.3172L10.2632 11.1113C10.704 10.669 11.2585 10.3572 11.8654 10.2102C12.4723 10.0632 13.108 10.0868 13.7024 10.2784C14.9052 10.6637 16.2193 11.1628 16.5925 12.2187C16.8095 12.8318 16.664 13.5299 16.1635 14.292C15.7553 14.928 15.2181 15.4711 14.5867 15.8863C14.4999 15.9416 14.3991 15.9708 14.2961 15.9703ZM11.7199 16.6895C9.26553 16.6895 6.44763 15.2704 3.93323 12.7556C3.88201 12.7062 3.84116 12.647 3.81306 12.5816C3.78496 12.5162 3.77017 12.4458 3.76955 12.3746C3.76893 12.3034 3.7825 12.2328 3.80946 12.1669C3.83642 12.101 3.87623 12.0411 3.92658 11.9908C3.97692 11.9404 4.03679 11.9006 4.10269 11.8737C4.16859 11.8467 4.23919 11.8331 4.31039 11.8338C4.38158 11.8344 4.45194 11.8492 4.51736 11.8773C4.58278 11.9054 4.64195 11.9462 4.69141 11.9974C7.06426 14.3706 9.79243 15.7194 11.9801 15.6107C12.0506 15.6062 12.1214 15.6158 12.1881 15.6391C12.2549 15.6623 12.3163 15.6987 12.3687 15.7461C12.4212 15.7935 12.4636 15.8509 12.4935 15.9149C12.5234 15.979 12.5401 16.0484 12.5428 16.119C12.55 16.261 12.5005 16.4001 12.4051 16.5056C12.3098 16.6111 12.1765 16.6744 12.0344 16.6817C11.9304 16.6867 11.8253 16.6895 11.7199 16.6895Z" fill="#454DFD"/>
<path d="M4.31205 12.9134C4.24164 12.9135 4.17191 12.8996 4.10688 12.8726C4.04185 12.8456 3.98281 12.8061 3.93313 12.7562C1.22784 10.0512 -0.23133 6.91054 0.0299766 4.35502C0.104218 3.57822 0.356161 2.8289 0.766317 2.16504C1.17647 1.50118 1.73385 0.94057 2.39532 0.526577C3.15922 0.0261261 3.85735 -0.119362 4.46861 0.097619C5.52456 0.470812 6.02394 1.78485 6.40893 2.98772C6.60081 3.58202 6.62456 4.21782 6.47757 4.82478C6.33058 5.43175 6.01856 5.98622 5.57604 6.42689L5.36478 6.63851C5.39052 6.91483 5.59892 7.85389 7.21752 9.47106C7.31519 9.57218 7.36924 9.70763 7.36801 9.84822C7.36679 9.98881 7.3104 10.1233 7.21099 10.2227C7.11157 10.3221 6.97709 10.3785 6.8365 10.3797C6.69591 10.381 6.56046 10.3269 6.45933 10.2292C4.02572 7.79598 4.26236 6.48086 4.33421 6.24208C4.35962 6.15733 4.40582 6.08028 4.46861 6.01795L4.81786 5.66871C5.12064 5.36704 5.33409 4.9875 5.43459 4.57207C5.53508 4.15664 5.51872 3.72151 5.3873 3.3148C5.09239 2.39326 4.68095 1.30978 4.11151 1.10853C3.8309 1.00951 3.45127 1.11532 2.98299 1.42346C2.45358 1.74881 2.00733 2.19314 1.67969 2.72115C1.35205 3.24916 1.15205 3.84629 1.09558 4.46512C0.866444 6.70285 2.21015 9.51931 4.68988 11.9987C4.76492 12.0737 4.81603 12.1692 4.83674 12.2733C4.85745 12.3773 4.84683 12.4852 4.80623 12.5832C4.76562 12.6812 4.69686 12.765 4.60864 12.8239C4.52042 12.8828 4.4167 12.9142 4.31062 12.9142L4.31205 12.9134Z" fill="#454DFD"/>
</svg>
